<?xml version="1.0" encoding="UTF-8" standalone="no"?>
<!-- Created with Inkscape (http://www.inkscape.org/) -->

<svg
   width="128"
   height="128"
   viewBox="0 0 33.866666 33.866666"
   version="1.1"
   id="svg1"
   xml:space="preserve"
   inkscape:version="1.3 (0e150ed6c4, 2023-07-21)"
   sodipodi:docname="Settings Group.svg"
   xmlns:inkscape="http://www.inkscape.org/namespaces/inkscape"
   xmlns:sodipodi="http://sodipodi.sourceforge.net/DTD/sodipodi-0.dtd"
   xmlns="http://www.w3.org/2000/svg"
   xmlns:svg="http://www.w3.org/2000/svg"><sodipodi:namedview
     id="namedview1"
     pagecolor="#505050"
     bordercolor="#ffffff"
     borderopacity="1"
     inkscape:showpageshadow="0"
     inkscape:pageopacity="0"
     inkscape:pagecheckerboard="1"
     inkscape:deskcolor="#505050"
     inkscape:document-units="px"
     inkscape:zoom="9.1083992"
     inkscape:cx="63.457912"
     inkscape:cy="71.856754"
     inkscape:window-width="2560"
     inkscape:window-height="1494"
     inkscape:window-x="-11"
     inkscape:window-y="-11"
     inkscape:window-maximized="1"
     inkscape:current-layer="layer1" /><defs
     id="defs1"><inkscape:path-effect
       effect="skeletal"
       id="path-effect25"
       is_visible="true"
       lpeversion="1"
       pattern="#path23"
       copytype="repeated_stretched"
       prop_scale="1"
       scale_y_rel="false"
       spacing="0"
       normal_offset="0"
       tang_offset="0"
       prop_units="false"
       vertical_pattern="false"
       hide_knot="false"
       fuse_tolerance="0" /><inkscape:path-effect
       effect="skeletal"
       id="path-effect22"
       is_visible="true"
       lpeversion="1"
       pattern="#path20"
       copytype="repeated_stretched"
       prop_scale="1"
       scale_y_rel="false"
       spacing="0"
       normal_offset="0"
       tang_offset="0"
       prop_units="false"
       vertical_pattern="false"
       hide_knot="false"
       fuse_tolerance="0" /><inkscape:path-effect
       effect="skeletal"
       id="path-effect19"
       is_visible="true"
       lpeversion="1"
       pattern="#path17"
       copytype="repeated_stretched"
       prop_scale="1"
       scale_y_rel="false"
       spacing="0"
       normal_offset="0"
       tang_offset="0"
       prop_units="false"
       vertical_pattern="false"
       hide_knot="false"
       fuse_tolerance="0" /><inkscape:path-effect
       effect="skeletal"
       id="path-effect16"
       is_visible="true"
       lpeversion="1"
       pattern="#path14"
       copytype="repeated_stretched"
       prop_scale="1"
       scale_y_rel="false"
       spacing="0"
       normal_offset="0"
       tang_offset="0"
       prop_units="false"
       vertical_pattern="false"
       hide_knot="false"
       fuse_tolerance="0" /><inkscape:path-effect
       effect="skeletal"
       id="path-effect13"
       is_visible="true"
       lpeversion="1"
       pattern="#path11"
       copytype="repeated_stretched"
       prop_scale="1"
       scale_y_rel="false"
       spacing="0"
       normal_offset="0"
       tang_offset="0"
       prop_units="false"
       vertical_pattern="false"
       hide_knot="false"
       fuse_tolerance="0" /><inkscape:path-effect
       effect="skeletal"
       id="path-effect3"
       is_visible="true"
       lpeversion="1"
       pattern="#rect1"
       copytype="repeated_stretched"
       prop_scale="1"
       scale_y_rel="false"
       spacing="0"
       normal_offset="0"
       tang_offset="0"
       prop_units="false"
       vertical_pattern="false"
       hide_knot="false"
       fuse_tolerance="0" /><inkscape:path-effect
       effect="skeletal"
       id="path-effect3-2"
       is_visible="true"
       lpeversion="1"
       pattern="#rect1-9"
       copytype="repeated_stretched"
       prop_scale="1"
       scale_y_rel="false"
       spacing="0"
       normal_offset="0"
       tang_offset="0"
       prop_units="false"
       vertical_pattern="false"
       hide_knot="false"
       fuse_tolerance="0" /><inkscape:path-effect
       effect="skeletal"
       id="path-effect3-2-6"
       is_visible="true"
       lpeversion="1"
       pattern="m 16.139583,6.4701878 1.5875,0.015253 c 0.489585,0.9971406 1.208501,2.1502272 2.910417,3.5687252 h -7.408334 c 1.714409,-1.4294354 2.314485,-2.5566554 2.910417,-3.5839782 z"
       copytype="repeated_stretched"
       prop_scale="1"
       scale_y_rel="false"
       spacing="0"
       normal_offset="0"
       tang_offset="0"
       prop_units="false"
       vertical_pattern="false"
       hide_knot="false"
       fuse_tolerance="0" /></defs><g
     inkscape:label="Layer 1"
     inkscape:groupmode="layer"
     id="layer1"><g
       inkscape:label="Main Gear"
       id="layer1-5"
       transform="matrix(1.1567653,0,0,1.1567653,-3.767937,-3.8399636)"><path
         id="path1"
         style="display:inline;fill:#ffffff;fill-opacity:1;stroke:none;stroke-width:0.265;stroke-dasharray:none"
         d="M 20.372956 6.230924 C 20.011148 6.4925886 18.068749 8.0494861 17.117618 9.0091515 A 7.9375 7.9375 0 0 0 16.933118 8.9957496 A 7.9375 7.9375 0 0 0 16.740129 9.0095983 C 15.865134 8.1519052 13.612001 6.3407116 13.49864 6.2447727 C 12.903422 6.4460022 12.32737 6.6961385 11.775594 6.989922 C 11.75309 7.2048057 11.609867 9.7829899 11.576799 11.093157 A 7.9375 7.9375 0 0 0 11.100135 11.570267 C 9.3402587 11.599409 8.0545933 11.753395 7.0031542 11.782912 C 6.7008941 12.329115 6.4417465 12.900729 6.2307542 13.493449 C 6.4931807 13.85631 8.050472 15.796632 9.0094285 16.744766 A 7.9375 7.9375 0 0 0 8.9960266 16.933287 A 7.9375 7.9375 0 0 0 9.0098753 17.125829 C 8.1524252 18.00054 6.3410062 20.25483 6.2450496 20.368211 C 6.4462796 20.963431 6.6959684 21.539484 6.9897522 22.091257 C 7.2058489 22.113889 9.8135583 22.259026 11.115771 22.290947 A 7.9375 7.9375 0 0 0 11.570098 22.763589 C 11.599107 24.525001 11.753207 25.811196 11.782742 26.863251 C 12.328948 27.165511 12.901006 27.425105 13.493726 27.636098 C 13.775539 27.432286 15.013025 26.443124 15.99766 25.56192 C 16.23097 25.279094 16.4265 25.049431 16.667759 24.76897 C 16.947213 24.442776 17.216613 24.13521 17.419609 23.925987 A 6.2668059 6.2668059 0 0 1 17.408887 23.775438 A 6.2668059 6.2668059 0 0 1 17.419609 23.626229 C 16.662461 22.877542 15.433312 21.346191 15.226154 21.059753 C 15.252244 20.986453 15.280849 20.914225 15.308799 20.841747 A 4.2333331 4.2333331 0 0 1 12.699883 16.933287 A 4.2333331 4.2333331 0 0 1 16.933118 12.700053 A 4.2333331 4.2333331 0 0 1 20.862574 15.373299 C 20.896514 15.361369 20.929884 15.348196 20.963982 15.336666 C 21.053492 15.412426 22.833081 16.842348 23.523758 17.5194 A 6.2668059 6.2668059 0 0 1 23.675647 17.508678 A 6.2668059 6.2668059 0 0 1 23.823515 17.5194 C 24.081413 17.26031 24.429943 16.949285 24.789797 16.638891 C 25.034967 16.426573 25.272064 16.224839 25.505462 16.033122 C 26.407443 15.003389 27.546257 13.587425 27.621632 13.498363 C 27.420405 12.903145 27.170711 12.327093 26.87693 11.775317 C 26.665328 11.753157 24.095735 11.608437 22.7661 11.572501 A 7.9375 7.9375 0 0 0 22.297031 11.122195 C 22.268815 9.3511377 22.113577 8.0590764 22.08394 7.0033239 C 21.537737 6.7010635 20.965675 6.4419167 20.372956 6.230924 z " /><path
         id="rect1"
         style="display:none;fill:#ffffff;stroke-width:0.264999"
         d="m 16.139583,6.4701878 1.5875,0.015253 c 0.489585,0.9971406 1.208501,2.1502272 2.910417,3.5687252 h -7.408334 c 1.714409,-1.4294354 2.314485,-2.5566554 2.910417,-3.5839782 z"
         sodipodi:nodetypes="ccccc"
         transform="translate(0.32030607,-10.417574)"
         inkscape:label="Tooth" /></g><path
       id="rect2"
       style="display:inline;fill:#ffffff;fill-opacity:1;stroke-width:0.264999"
       inkscape:label="Border"
       d="M 6.3499999,0 C 2.8321069,0 0,2.8321069 0,6.3499999 V 27.516666 c 0,3.517894 2.8321069,6.35 6.3499999,6.35 H 27.516666 c 3.517894,0 6.35,-2.832106 6.35,-6.35 V 6.3499999 C 33.866666,2.8321069 31.03456,0 27.516666,0 Z M 6.8791665,2.6458333 H 26.987499 c 2.345263,0 4.233334,1.8880714 4.233334,4.2333332 V 18.866548 c 0.689257,0.03663 1.390376,0.07588 1.480013,0.08527 0.268309,0.503931 0.496281,1.02994 0.680062,1.573548 -0.07551,0.08922 -1.315336,1.631621 -2.160075,2.570902 v 1.115178 c 0.861334,0.926219 1.964637,2.304511 2.172994,2.592606 -0.192697,0.541326 -0.429333,1.063852 -0.705384,1.562695 -0.508564,0.01428 -1.078759,0.06079 -1.738395,0.10542 -0.431995,1.158419 -1.353312,2.070901 -2.517159,2.491838 -0.04446,0.87862 -0.09155,1.671946 -0.102836,1.779736 -0.50393,0.26831 -1.02994,0.496797 -1.573547,0.680579 -0.09076,-0.07681 -1.685172,-1.358785 -2.618445,-2.203483 h -1.021126 c -0.925628,0.867029 -2.346206,2.004564 -2.639116,2.216402 -0.541326,-0.192697 -1.063335,-0.42985 -1.562178,-0.7059 -0.01253,-0.446193 -0.05079,-0.951252 -0.08992,-1.510502 H 6.8791665 c -2.3452618,0 -4.2333332,-1.888071 -4.2333332,-4.233334 V 6.8791665 c 0,-2.3452618 1.8880714,-4.2333332 4.2333332,-4.2333332 z" /><g
       inkscape:label="Little Gear"
       id="layer1-5-9"
       transform="matrix(0.73950403,0,0,0.73950403,11.097177,11.140261)"
       style="display:inline;fill:#ffffff;fill-opacity:1"><path
         id="path1-9"
         style="display:inline;fill:#ffffff;fill-opacity:1;stroke:none;stroke-width:0.265;stroke-dasharray:none"
         d="m 16.933333,8.9958332 a 7.9375,7.9375 0 0 0 -7.9374998,7.9374998 7.9375,7.9375 0 0 0 7.9374998,7.9375 7.9375,7.9375 0 0 0 7.9375,-7.9375 7.9375,7.9375 0 0 0 -7.9375,-7.9374998 z m 0,3.7041668 a 4.2333331,4.2333331 0 0 1 4.233333,4.233333 4.2333331,4.2333331 0 0 1 -4.233333,4.233333 A 4.2333331,4.2333331 0 0 1 12.7,16.933333 4.2333331,4.2333331 0 0 1 16.933333,12.7 Z"
         inkscape:label="Center" /><path
         id="rect1-9"
         style="display:none;fill:#ffffff;fill-opacity:1;stroke-width:0.264999"
         d="m 16.139583,6.4701878 1.5875,0.015253 c 0.489585,0.9971406 1.208501,2.1502272 2.910417,3.5687252 h -7.408334 c 1.714409,-1.4294354 2.314485,-2.5566554 2.910417,-3.5839782 z"
         sodipodi:nodetypes="ccccc"
         transform="translate(0.32030607,-10.417574)"
         inkscape:label="Tooth" /><path
         id="path3-7"
         style="display:inline;fill:#ffffff;fill-opacity:1;stroke-width:0.264999"
         d="m 27.635916,20.373103 c -0.210992,0.592723 -0.470204,1.16463 -0.772464,1.710837 -1.142803,0.03208 -2.555028,0.21319 -4.560619,0.218897 1.459177,-1.459175 2.417354,-3.419351 2.36351,-5.369505 0.927716,0.856295 2.689693,3.05278 2.969573,3.439771 z m -5.544709,6.503619 c -0.551776,0.293785 -1.12786,0.543735 -1.723081,0.744966 -0.12199,-0.103243 -2.744253,-2.207471 -3.434794,-2.95534 0,0 -4e-6,-8e-6 -4e-6,-8e-6 l 4e-6,3e-6 c 1.950152,0.05384 3.910326,-0.904332 5.369501,-2.363506 -0.0028,1.056177 -0.186493,4.333931 -0.211626,4.573885 z m -8.597654,0.759191 c -0.592723,-0.210992 -1.164629,-0.470204 -1.710835,-0.772465 -0.03208,-1.142803 -0.213189,-2.555029 -0.218895,-4.560619 1.459175,1.459177 3.41935,2.417356 5.369504,2.363514 -0.856295,0.927715 -3.052783,2.689691 -3.439774,2.96957 z M 6.989939,22.091199 C 6.6961543,21.539423 6.4462043,20.963339 6.2449737,20.368118 6.3482163,20.246128 8.452444,17.62387 9.2003105,16.933332 c 0,0 1.86e-5,-9e-6 1.86e-5,-9e-6 l -7.2e-6,9e-6 c -0.053844,1.95015 0.9043301,3.910322 2.3635011,5.369497 -1.056177,-0.0028 -4.3339295,-0.186496 -4.573884,-0.21163 z M 6.2307543,13.493545 C 6.4417471,12.900822 6.7009599,12.328916 7.0032209,11.78271 8.1460239,11.750628 9.5582496,11.569524 11.56384,11.563819 10.104662,13.022993 9.1464817,14.983167 9.2003216,16.933321 8.2726082,16.077025 6.5106328,13.880536 6.2307543,13.493545 Z M 11.775473,6.9899349 c 0.551776,-0.2937843 1.127861,-0.5437339 1.723082,-0.744964 0.121989,0.103242 2.744242,2.2074695 3.434777,2.9553329 0,0 1.7e-5,1.76e-5 1.7e-5,1.76e-5 -5e-6,2e-7 -1.1e-5,3e-7 -1.7e-5,5e-7 -1.950148,-0.053844 -3.910318,0.9043281 -5.369492,2.3634971 0.0028,-1.056178 0.186499,-4.3339289 0.211633,-4.5738841 z m 8.597655,-0.7591778 c 0.592722,0.2109933 1.164629,0.4702066 1.710834,0.7724679 0.03208,1.1428031 0.213185,2.5550289 0.218888,4.560619 -1.459173,-1.459179 -3.419347,-2.4173604 -5.369501,-2.3635226 0.856296,-0.927712 3.052788,-2.6896863 3.439779,-2.9695643 z m 6.503606,5.5447239 c 0.293784,0.551776 0.543733,1.127861 0.744963,1.723082 -0.103248,0.121995 -2.207476,2.744248 -2.955355,3.434792 0.05385,-1.950154 -0.904319,-3.910331 -2.363492,-5.369511 1.056179,0.0028 4.333928,0.186503 4.573884,0.211637 z"
         inkscape:path-effect="#path-effect3-2"
         inkscape:original-d="m 26.458332,16.933332 a 9.5249996,9.5249996 0 0 1 -9.525,9.525 9.5249996,9.5249996 0 0 1 -9.5249992,-9.525 9.5249996,9.5249996 0 0 1 9.5249992,-9.5249992 9.5249996,9.5249996 0 0 1 9.525,9.5249992 z"
         inkscape:label="Teeth" /></g><g
       inkscape:label="Little GearCutter"
       id="g12"
       transform="matrix(0.73950403,0,0,0.73950403,11.097177,11.140261)"
       style="display:none;fill:#ff0f0f;fill-opacity:1"><path
         id="path10"
         style="display:inline;fill:#ff0f0f;fill-opacity:1;stroke:none;stroke-width:0.265;stroke-dasharray:none"
         d="m 16.933333,8.9958332 a 7.9375,7.9375 0 0 0 -7.9374998,7.9374998 7.9375,7.9375 0 0 0 7.9374998,7.9375 7.9375,7.9375 0 0 0 7.9375,-7.9375 7.9375,7.9375 0 0 0 -7.9375,-7.9374998 z m 0,3.7041668 a 4.2333331,4.2333331 0 0 1 4.233333,4.233333 4.2333331,4.2333331 0 0 1 -4.233333,4.233333 A 4.2333331,4.2333331 0 0 1 12.7,16.933333 4.2333331,4.2333331 0 0 1 16.933333,12.7 Z"
         inkscape:label="Center" /><path
         id="path11"
         style="display:none;fill:#ff0f0f;fill-opacity:1;stroke-width:0.264999"
         d="m 16.139583,6.4701878 1.5875,0.015253 c 0.489585,0.9971406 1.208501,2.1502272 2.910417,3.5687252 h -7.408334 c 1.714409,-1.4294354 2.314485,-2.5566554 2.910417,-3.5839782 z"
         sodipodi:nodetypes="ccccc"
         transform="translate(0.32030607,-10.417574)"
         inkscape:label="Tooth" /><path
         id="path12"
         style="display:inline;fill:#ff0f0f;fill-opacity:1;stroke-width:0.264999"
         d="m 27.635916,20.373103 c -0.210992,0.592723 -0.470204,1.16463 -0.772464,1.710837 -1.142803,0.03208 -2.555028,0.21319 -4.560619,0.218897 1.459177,-1.459175 2.417354,-3.419351 2.36351,-5.369505 0.927716,0.856295 2.689693,3.05278 2.969573,3.439771 z m -5.544709,6.503619 c -0.551776,0.293785 -1.12786,0.543735 -1.723081,0.744966 -0.12199,-0.103243 -2.744253,-2.207471 -3.434794,-2.95534 0,0 -4e-6,-8e-6 -4e-6,-8e-6 l 4e-6,3e-6 c 1.950152,0.05384 3.910326,-0.904332 5.369501,-2.363506 -0.0028,1.056177 -0.186493,4.333931 -0.211626,4.573885 z m -8.597654,0.759191 c -0.592723,-0.210992 -1.164629,-0.470204 -1.710835,-0.772465 -0.03208,-1.142803 -0.213189,-2.555029 -0.218895,-4.560619 1.459175,1.459177 3.41935,2.417356 5.369504,2.363514 -0.856295,0.927715 -3.052783,2.689691 -3.439774,2.96957 z M 6.989939,22.091199 C 6.6961543,21.539423 6.4462043,20.963339 6.2449737,20.368118 6.3482163,20.246128 8.452444,17.62387 9.2003105,16.933332 c 0,0 1.86e-5,-9e-6 1.86e-5,-9e-6 l -7.2e-6,9e-6 c -0.053844,1.95015 0.9043301,3.910322 2.3635011,5.369497 -1.056177,-0.0028 -4.3339295,-0.186496 -4.573884,-0.21163 z M 6.2307543,13.493545 C 6.4417471,12.900822 6.7009599,12.328916 7.0032209,11.78271 8.1460239,11.750628 9.5582496,11.569524 11.56384,11.563819 10.104662,13.022993 9.1464817,14.983167 9.2003216,16.933321 8.2726082,16.077025 6.5106328,13.880536 6.2307543,13.493545 Z M 11.775473,6.9899349 c 0.551776,-0.2937843 1.127861,-0.5437339 1.723082,-0.744964 0.121989,0.103242 2.744242,2.2074695 3.434777,2.9553329 0,0 1.7e-5,1.76e-5 1.7e-5,1.76e-5 -5e-6,2e-7 -1.1e-5,3e-7 -1.7e-5,5e-7 -1.950148,-0.053844 -3.910318,0.9043281 -5.369492,2.3634971 0.0028,-1.056178 0.186499,-4.3339289 0.211633,-4.5738841 z m 8.597655,-0.7591778 c 0.592722,0.2109933 1.164629,0.4702066 1.710834,0.7724679 0.03208,1.1428031 0.213185,2.5550289 0.218888,4.560619 -1.459173,-1.459179 -3.419347,-2.4173604 -5.369501,-2.3635226 0.856296,-0.927712 3.052788,-2.6896863 3.439779,-2.9695643 z m 6.503606,5.5447239 c 0.293784,0.551776 0.543733,1.127861 0.744963,1.723082 -0.103248,0.121995 -2.207476,2.744248 -2.955355,3.434792 0.05385,-1.950154 -0.904319,-3.910331 -2.363492,-5.369511 1.056179,0.0028 4.333928,0.186503 4.573884,0.211637 z"
         inkscape:path-effect="#path-effect13"
         inkscape:original-d="m 26.458332,16.933332 a 9.5249996,9.5249996 0 0 1 -9.525,9.525 9.5249996,9.5249996 0 0 1 -9.5249992,-9.525 9.5249996,9.5249996 0 0 1 9.5249992,-9.5249992 9.5249996,9.5249996 0 0 1 9.525,9.5249992 z"
         inkscape:label="Teeth" /></g><g
       inkscape:label="Little GearCutter Resized"
       id="g15"
       transform="matrix(0.91328801,0,0,0.91328801,8.1544347,8.1975186)"
       style="display:none;fill:#ff0f0f;fill-opacity:1"><path
         id="path13"
         style="display:inline;fill:#ff0f0f;fill-opacity:1;stroke:none;stroke-width:0.265;stroke-dasharray:none"
         d="m 16.933333,8.9958332 a 7.9375,7.9375 0 0 0 -7.9374998,7.9374998 7.9375,7.9375 0 0 0 7.9374998,7.9375 7.9375,7.9375 0 0 0 7.9375,-7.9375 7.9375,7.9375 0 0 0 -7.9375,-7.9374998 z m 0,3.7041668 a 4.2333331,4.2333331 0 0 1 4.233333,4.233333 4.2333331,4.2333331 0 0 1 -4.233333,4.233333 A 4.2333331,4.2333331 0 0 1 12.7,16.933333 4.2333331,4.2333331 0 0 1 16.933333,12.7 Z"
         inkscape:label="Center" /><path
         id="path14"
         style="display:none;fill:#ff0f0f;fill-opacity:1;stroke-width:0.264999"
         d="m 16.139583,6.4701878 1.5875,0.015253 c 0.489585,0.9971406 1.208501,2.1502272 2.910417,3.5687252 h -7.408334 c 1.714409,-1.4294354 2.314485,-2.5566554 2.910417,-3.5839782 z"
         sodipodi:nodetypes="ccccc"
         transform="translate(0.32030607,-10.417574)"
         inkscape:label="Tooth" /><path
         id="path15"
         style="display:inline;fill:#ff0f0f;fill-opacity:1;stroke-width:0.264999"
         d="m 27.635916,20.373103 c -0.210992,0.592723 -0.470204,1.16463 -0.772464,1.710837 -1.142803,0.03208 -2.555028,0.21319 -4.560619,0.218897 1.459177,-1.459175 2.417354,-3.419351 2.36351,-5.369505 0.927716,0.856295 2.689693,3.05278 2.969573,3.439771 z m -5.544709,6.503619 c -0.551776,0.293785 -1.12786,0.543735 -1.723081,0.744966 -0.12199,-0.103243 -2.744253,-2.207471 -3.434794,-2.95534 0,0 -4e-6,-8e-6 -4e-6,-8e-6 l 4e-6,3e-6 c 1.950152,0.05384 3.910326,-0.904332 5.369501,-2.363506 -0.0028,1.056177 -0.186493,4.333931 -0.211626,4.573885 z m -8.597654,0.759191 c -0.592723,-0.210992 -1.164629,-0.470204 -1.710835,-0.772465 -0.03208,-1.142803 -0.213189,-2.555029 -0.218895,-4.560619 1.459175,1.459177 3.41935,2.417356 5.369504,2.363514 -0.856295,0.927715 -3.052783,2.689691 -3.439774,2.96957 z M 6.989939,22.091199 C 6.6961543,21.539423 6.4462043,20.963339 6.2449737,20.368118 6.3482163,20.246128 8.452444,17.62387 9.2003105,16.933332 c 0,0 1.86e-5,-9e-6 1.86e-5,-9e-6 l -7.2e-6,9e-6 c -0.053844,1.95015 0.9043301,3.910322 2.3635011,5.369497 -1.056177,-0.0028 -4.3339295,-0.186496 -4.573884,-0.21163 z M 6.2307543,13.493545 C 6.4417471,12.900822 6.7009599,12.328916 7.0032209,11.78271 8.1460239,11.750628 9.5582496,11.569524 11.56384,11.563819 10.104662,13.022993 9.1464817,14.983167 9.2003216,16.933321 8.2726082,16.077025 6.5106328,13.880536 6.2307543,13.493545 Z M 11.775473,6.9899349 c 0.551776,-0.2937843 1.127861,-0.5437339 1.723082,-0.744964 0.121989,0.103242 2.744242,2.2074695 3.434777,2.9553329 0,0 1.7e-5,1.76e-5 1.7e-5,1.76e-5 -5e-6,2e-7 -1.1e-5,3e-7 -1.7e-5,5e-7 -1.950148,-0.053844 -3.910318,0.9043281 -5.369492,2.3634971 0.0028,-1.056178 0.186499,-4.3339289 0.211633,-4.5738841 z m 8.597655,-0.7591778 c 0.592722,0.2109933 1.164629,0.4702066 1.710834,0.7724679 0.03208,1.1428031 0.213185,2.5550289 0.218888,4.560619 -1.459173,-1.459179 -3.419347,-2.4173604 -5.369501,-2.3635226 0.856296,-0.927712 3.052788,-2.6896863 3.439779,-2.9695643 z m 6.503606,5.5447239 c 0.293784,0.551776 0.543733,1.127861 0.744963,1.723082 -0.103248,0.121995 -2.207476,2.744248 -2.955355,3.434792 0.05385,-1.950154 -0.904319,-3.910331 -2.363492,-5.369511 1.056179,0.0028 4.333928,0.186503 4.573884,0.211637 z"
         inkscape:path-effect="#path-effect16"
         inkscape:original-d="m 26.458332,16.933332 a 9.5249996,9.5249996 0 0 1 -9.525,9.525 9.5249996,9.5249996 0 0 1 -9.5249992,-9.525 9.5249996,9.5249996 0 0 1 9.5249992,-9.5249992 9.5249996,9.5249996 0 0 1 9.525,9.5249992 z"
         inkscape:label="Teeth" /></g><g
       inkscape:label="Little GearCutter for Border"
       id="g18"
       transform="matrix(0.91328801,0,0,0.91328801,8.1544347,8.1975186)"
       style="display:none;fill:#ff0f0f;fill-opacity:1"><path
         id="path16"
         style="display:inline;fill:#ff0f0f;fill-opacity:1;stroke:none;stroke-width:0.265;stroke-dasharray:none"
         d="m 16.933333,8.9958332 a 7.9375,7.9375 0 0 0 -7.9374998,7.9374998 7.9375,7.9375 0 0 0 7.9374998,7.9375 7.9375,7.9375 0 0 0 7.9375,-7.9375 7.9375,7.9375 0 0 0 -7.9375,-7.9374998 z m 0,3.7041668 a 4.2333331,4.2333331 0 0 1 4.233333,4.233333 4.2333331,4.2333331 0 0 1 -4.233333,4.233333 A 4.2333331,4.2333331 0 0 1 12.7,16.933333 4.2333331,4.2333331 0 0 1 16.933333,12.7 Z"
         inkscape:label="Center" /><path
         id="path17"
         style="display:none;fill:#ff0f0f;fill-opacity:1;stroke-width:0.264999"
         d="m 16.139583,6.4701878 1.5875,0.015253 c 0.489585,0.9971406 1.208501,2.1502272 2.910417,3.5687252 h -7.408334 c 1.714409,-1.4294354 2.314485,-2.5566554 2.910417,-3.5839782 z"
         sodipodi:nodetypes="ccccc"
         transform="translate(0.32030607,-10.417574)"
         inkscape:label="Tooth" /></g><g
       inkscape:label="Little GearCutter for Main"
       id="g21"
       transform="matrix(0.91328801,0,0,0.91328801,8.1544347,8.1975186)"
       style="display:inline;fill:#ff0f0f;fill-opacity:1"><path
         id="path20"
         style="display:none;fill:#ff0f0f;fill-opacity:1;stroke-width:0.264999"
         d="m 16.139583,6.4701878 1.5875,0.015253 c 0.489585,0.9971406 1.208501,2.1502272 2.910417,3.5687252 h -7.408334 c 1.714409,-1.4294354 2.314485,-2.5566554 2.910417,-3.5839782 z"
         sodipodi:nodetypes="ccccc"
         transform="translate(0.32030607,-10.417574)"
         inkscape:label="Tooth" /></g><g
       inkscape:label="Little GearCutter for Main"
       id="g24"
       transform="matrix(0.91328801,0,0,0.91328801,8.1544347,8.1975186)"
       style="display:inline;fill:#ff0f0f;fill-opacity:1"><path
         id="path23"
         style="display:none;fill:#ff0f0f;fill-opacity:1;stroke-width:0.264999"
         d="m 16.139583,6.4701878 1.5875,0.015253 c 0.489585,0.9971406 1.208501,2.1502272 2.910417,3.5687252 h -7.408334 c 1.714409,-1.4294354 2.314485,-2.5566554 2.910417,-3.5839782 z"
         sodipodi:nodetypes="ccccc"
         transform="translate(0.32030607,-10.417574)"
         inkscape:label="Tooth" /></g></g></svg>
