<?xml version="1.0" encoding="UTF-8" standalone="no"?>
<!-- Created with Inkscape (http://www.inkscape.org/) -->

<svg
   width="128"
   height="128"
   viewBox="0 0 33.866666 33.866666"
   version="1.1"
   id="svg1"
   sodipodi:docname="Setting.svg"
   inkscape:version="1.3 (0e150ed6c4, 2023-07-21)"
   xmlns:inkscape="http://www.inkscape.org/namespaces/inkscape"
   xmlns:sodipodi="http://sodipodi.sourceforge.net/DTD/sodipodi-0.dtd"
   xmlns="http://www.w3.org/2000/svg"
   xmlns:svg="http://www.w3.org/2000/svg">
  <sodipodi:namedview
     id="namedview1"
     pagecolor="#505050"
     bordercolor="#ffffff"
     borderopacity="1"
     inkscape:showpageshadow="0"
     inkscape:pageopacity="0"
     inkscape:pagecheckerboard="1"
     inkscape:deskcolor="#505050"
     inkscape:document-units="px"
     showgrid="true"
     inkscape:zoom="8.6733445"
     inkscape:cx="62.029128"
     inkscape:cy="62.663255"
     inkscape:window-width="2560"
     inkscape:window-height="1494"
     inkscape:window-x="-11"
     inkscape:window-y="-11"
     inkscape:window-maximized="1"
     inkscape:current-layer="layer1">
    <inkscape:grid
       id="grid1"
       units="px"
       originx="0"
       originy="0"
       spacingx="16.933333"
       spacingy="16.933333"
       empcolor="#0099e5"
       empopacity="0.30196078"
       color="#0099e5"
       opacity="0.14901961"
       empspacing="5"
       dotted="false"
       gridanglex="30"
       gridanglez="30"
       visible="true" />
  </sodipodi:namedview>
  <defs
     id="defs1">
    <inkscape:path-effect
       effect="skeletal"
       id="path-effect3"
       is_visible="true"
       lpeversion="1"
       pattern="#rect1"
       copytype="repeated_stretched"
       prop_scale="1"
       scale_y_rel="false"
       spacing="0"
       normal_offset="0"
       tang_offset="0"
       prop_units="false"
       vertical_pattern="false"
       hide_knot="false"
       fuse_tolerance="0" />
  </defs>
  <g
     inkscape:label="Layer 1"
     inkscape:groupmode="layer"
     id="layer1">
    <g
       id="g1"
       transform="matrix(1.478847,0,0,1.478847,-8.1084764,-8.1084764)">
      <path
         id="path1"
         style="display:inline;fill:#ffffff;fill-opacity:1;stroke:none;stroke-width:0.265;stroke-dasharray:none"
         d="m 16.933332,8.9958309 a 7.9375,7.9375 0 0 0 -7.9375008,7.9375001 7.9375,7.9375 0 0 0 7.9375008,7.9375 7.9375,7.9375 0 0 0 7.9375,-7.9375 7.9375,7.9375 0 0 0 -7.9375,-7.9375001 z m 0,3.7041671 a 4.2333331,4.2333331 0 0 1 4.233333,4.233333 4.2333331,4.2333331 0 0 1 -4.233333,4.233333 4.2333331,4.2333331 0 0 1 -4.233333,-4.233333 4.2333331,4.2333331 0 0 1 4.233333,-4.233333 z"
         inkscape:label="Center" />
      <path
         id="rect1"
         style="display:none;fill:#ffffff;stroke-width:0.264999"
         d="m 16.139583,6.4701878 1.5875,0.015253 c 0.489585,0.9971406 1.208501,2.1502272 2.910417,3.5687252 h -7.408334 c 1.714409,-1.4294354 2.314485,-2.5566554 2.910417,-3.5839782 z"
         sodipodi:nodetypes="ccccc"
         transform="translate(-12.525032,-21.146248)"
         inkscape:label="Tooth" />
      <path
         id="path3"
         style="display:inline;fill:#ffffff;stroke-width:0.264999"
         d="m 27.635916,20.373103 c -0.210992,0.592723 -0.470204,1.16463 -0.772464,1.710837 -1.142803,0.03208 -2.555028,0.21319 -4.560619,0.218897 1.459177,-1.459175 2.417354,-3.419351 2.36351,-5.369505 0.927716,0.856295 2.689693,3.05278 2.969573,3.439771 z m -5.544709,6.503619 c -0.551776,0.293785 -1.12786,0.543735 -1.723081,0.744966 -0.12199,-0.103243 -2.744253,-2.207471 -3.434794,-2.95534 0,0 -4e-6,-8e-6 -4e-6,-8e-6 l 4e-6,3e-6 c 1.950152,0.05384 3.910326,-0.904332 5.369501,-2.363506 -0.0028,1.056177 -0.186493,4.333931 -0.211626,4.573885 z m -8.597654,0.759191 c -0.592723,-0.210992 -1.164629,-0.470204 -1.710835,-0.772465 -0.03208,-1.142803 -0.213189,-2.555029 -0.218895,-4.560619 1.459175,1.459177 3.41935,2.417356 5.369504,2.363514 -0.856295,0.927715 -3.052783,2.689691 -3.439774,2.96957 z M 6.989939,22.091199 C 6.6961543,21.539423 6.4462043,20.963339 6.2449737,20.368118 6.3482163,20.246128 8.452444,17.62387 9.2003105,16.933332 c 0,0 1.86e-5,-9e-6 1.86e-5,-9e-6 l -7.2e-6,9e-6 c -0.053844,1.95015 0.9043301,3.910322 2.3635011,5.369497 -1.056177,-0.0028 -4.3339295,-0.186496 -4.573884,-0.21163 z M 6.2307543,13.493545 C 6.4417471,12.900822 6.7009599,12.328916 7.0032209,11.78271 8.1460239,11.750628 9.5582496,11.569524 11.56384,11.563819 10.104662,13.022993 9.1464817,14.983167 9.2003216,16.933321 8.2726082,16.077025 6.5106328,13.880536 6.2307543,13.493545 Z M 11.775473,6.9899349 c 0.551776,-0.2937843 1.127861,-0.5437339 1.723082,-0.744964 0.121989,0.103242 2.744242,2.2074695 3.434777,2.9553329 0,0 1.7e-5,1.76e-5 1.7e-5,1.76e-5 -5e-6,2e-7 -1.1e-5,3e-7 -1.7e-5,5e-7 -1.950148,-0.053844 -3.910318,0.9043281 -5.369492,2.3634971 0.0028,-1.056178 0.186499,-4.3339289 0.211633,-4.5738841 z m 8.597655,-0.7591778 c 0.592722,0.2109933 1.164629,0.4702066 1.710834,0.7724679 0.03208,1.1428031 0.213185,2.5550289 0.218888,4.560619 -1.459173,-1.459179 -3.419347,-2.4173604 -5.369501,-2.3635226 0.856296,-0.927712 3.052788,-2.6896863 3.439779,-2.9695643 z m 6.503606,5.5447239 c 0.293784,0.551776 0.543733,1.127861 0.744963,1.723082 -0.103248,0.121995 -2.207476,2.744248 -2.955355,3.434792 0.05385,-1.950154 -0.904319,-3.910331 -2.363492,-5.369511 1.056179,0.0028 4.333928,0.186503 4.573884,0.211637 z"
         inkscape:path-effect="#path-effect3"
         inkscape:original-d="m 26.458332,16.933332 a 9.5249996,9.5249996 0 0 1 -9.525,9.525 9.5249996,9.5249996 0 0 1 -9.5249992,-9.525 9.5249996,9.5249996 0 0 1 9.5249992,-9.5249992 9.5249996,9.5249996 0 0 1 9.525,9.5249992 z"
         inkscape:label="Teeth" />
    </g>
  </g>
</svg>
